<svg width="44" height="46" viewBox="0 0 44 46" fill="none" xmlns="http://www.w3.org/2000/svg">
<path d="M10.9504 11.1327C13.4167 8.63598 16.6624 7.37517 19.9164 7.35522C23.1676 7.33524 26.426 8.555 28.9207 11.0192C31.4174 13.4855 32.6782 16.7312 32.6982 19.9851C32.7182 23.2364 31.4984 26.4948 29.0342 28.9896C26.5679 31.4863 23.3221 32.7471 20.0683 32.767C16.817 32.787 13.5586 31.5672 11.0639 29.103C8.56717 26.6368 7.30636 23.391 7.28637 20.1371C7.26642 16.8858 8.48623 13.6274 10.9504 11.1327ZM19.924 9.28845C17.1692 9.30536 14.4203 10.3738 12.3302 12.4897C10.2382 14.6076 9.2027 17.3721 9.2196 20.1295C9.23654 22.8842 10.305 25.6332 12.4209 27.7232C14.5388 29.8152 17.3033 30.8508 20.0607 30.8338C22.8154 30.8169 25.5643 29.7484 27.6544 27.6326C29.7464 25.5146 30.7819 22.7501 30.765 19.9927C30.7481 17.238 29.6796 14.4891 27.5637 12.399C25.4458 10.307 22.6813 9.27151 19.924 9.28845Z" fill="white" stroke="white" stroke-width="0.637683"/>
<path d="M28.9956 27.5931C28.6063 27.2267 27.9936 27.2454 27.6272 27.6348C27.2609 28.0241 27.2796 28.6368 27.6689 29.0032L41.8776 42.3631C42.2669 42.7294 42.8797 42.7108 43.246 42.3214C43.6123 41.9321 43.5936 41.3193 43.2043 40.953L28.9956 27.5931Z" fill="white" stroke="white" stroke-width="0.637683"/>
<path d="M38.6589 3.81299C39.7306 3.81299 40.7011 4.24748 41.4035 4.94994C42.106 5.65241 42.5405 6.62282 42.5405 7.69455C42.5405 8.76629 42.106 9.7367 41.4035 10.4392C40.7011 11.1416 39.7306 11.5761 38.6589 11.5761C37.5872 11.5761 36.6168 11.1416 35.9143 10.4392C35.2119 9.7367 34.7773 8.76629 34.7773 7.69455C34.7773 6.62282 35.2119 5.65241 35.9143 4.94994C36.6168 4.24747 37.5872 3.81299 38.6589 3.81299ZM40.0313 6.32214C39.6802 5.971 39.1949 5.75381 38.6589 5.75381C38.1229 5.75381 37.6376 5.971 37.2865 6.32214C36.9354 6.67329 36.7182 7.15856 36.7182 7.69455C36.7182 8.23055 36.9354 8.71583 37.2865 9.06697C37.6376 9.41807 38.1229 9.6353 38.6589 9.6353C39.1949 9.6353 39.6802 9.41807 40.0313 9.06697C40.3825 8.71582 40.5997 8.23054 40.5997 7.69455C40.5997 7.15856 40.3825 6.67328 40.0313 6.32214Z" fill="white" stroke="white" stroke-width="0.637683"/>
<path d="M21.1911 37.7764C22.2629 37.7764 23.2333 38.2109 23.9358 38.9133C24.6382 39.6158 25.0727 40.5862 25.0727 41.6579C25.0727 42.7297 24.6382 43.7001 23.9358 44.4025C23.2333 45.105 22.2629 45.5395 21.1911 45.5395C20.1194 45.5395 19.149 45.105 18.4465 44.4025C17.7441 43.7001 17.3096 42.7297 17.3096 41.6579C17.3096 40.5862 17.7441 39.6158 18.4465 38.9133C19.149 38.2109 20.1194 37.7764 21.1911 37.7764ZM22.5635 40.2855C22.2124 39.9344 21.7271 39.7172 21.1911 39.7172C20.6551 39.7172 20.1699 39.9344 19.8187 40.2855C19.4676 40.6367 19.2504 41.1219 19.2504 41.6579C19.2504 42.1939 19.4676 42.6792 19.8187 43.0303C20.1699 43.3815 20.6551 43.5987 21.1911 43.5987C21.7271 43.5987 22.2124 43.3815 22.5635 43.0303C22.9147 42.6792 23.1319 42.1939 23.1319 41.6579C23.1319 41.1219 22.9147 40.6367 22.5635 40.2855Z" fill="white" stroke="white" stroke-width="0.637683"/>
<path d="M4.69504 30.9834C5.76678 30.9834 6.73718 31.4179 7.43966 32.1204C8.14209 32.8228 8.57661 33.7932 8.57661 34.865C8.57661 35.9367 8.14208 36.9071 7.43966 37.6096C6.73719 38.312 5.76678 38.7465 4.69504 38.7465C3.62331 38.7465 2.6529 38.312 1.95043 37.6096C1.24796 36.9071 0.813477 35.9367 0.813477 34.865C0.813477 33.7932 1.24797 32.8228 1.95043 32.1204C2.6529 31.4179 3.62331 30.9834 4.69504 30.9834ZM6.06745 33.4926C5.71631 33.1414 5.23103 32.9242 4.69504 32.9242C4.15905 32.9242 3.67377 33.1414 3.32263 33.4926C2.97149 33.8437 2.7543 34.329 2.7543 34.865C2.7543 35.401 2.97149 35.8862 3.32263 36.2374C3.67378 36.5885 4.15905 36.8057 4.69504 36.8057C5.23103 36.8057 5.71631 36.5885 6.06745 36.2374C6.41856 35.8862 6.63579 35.401 6.63579 34.865C6.63579 34.329 6.41856 33.8437 6.06745 33.4926Z" fill="white" stroke="white" stroke-width="0.637683"/>
<path d="M6.63645 0.901855C7.70818 0.901855 8.67859 1.33634 9.38106 2.03881C10.0835 2.74128 10.518 3.71169 10.518 4.78342C10.518 5.85516 10.0835 6.82556 9.38106 7.52804C8.67859 8.23047 7.70818 8.66499 6.63645 8.66499C5.56472 8.66499 4.59431 8.23046 3.89184 7.52804C3.18937 6.82557 2.75488 5.85516 2.75488 4.78342C2.75488 3.71169 3.18937 2.74128 3.89184 2.03881C4.5943 1.33634 5.56472 0.901855 6.63645 0.901855ZM8.00886 3.41101C7.65772 3.05987 7.17244 2.84268 6.63645 2.84268C6.10046 2.84268 5.61518 3.05987 5.26404 3.41101C4.91289 3.76215 4.6957 4.24743 4.6957 4.78342C4.6957 5.31941 4.91289 5.80469 5.26404 6.15583C5.61518 6.50694 6.10046 6.72417 6.63645 6.72417C7.17244 6.72417 7.65772 6.50694 8.00886 6.15583C8.35997 5.80469 8.57719 5.31941 8.57719 4.78342C8.57719 4.24743 8.35997 3.76215 8.00886 3.41101Z" fill="white" stroke="white" stroke-width="0.637683"/>
<path d="M28.4147 18.9111V20.737V21.2222H27.9295H26.2362C26.1526 21.6069 26.0349 21.9799 25.8866 22.3378C25.736 22.7012 25.5536 23.0482 25.3429 23.3754L26.5412 24.5738L26.8843 24.9168L26.5412 25.2599L25.2501 26.551L24.9071 26.894L24.564 26.551L23.3654 25.3523C23.0375 25.5636 22.6906 25.7461 22.3283 25.8963C21.9703 26.0446 21.5973 26.1623 21.2125 26.2459V27.9393V28.4245H20.7273H18.9014H18.4161V27.9393V26.2459C18.0315 26.1623 17.6585 26.0447 17.3005 25.8964C16.9372 25.7458 16.5901 25.5633 16.2629 25.3526L15.0646 26.551L14.7215 26.894L14.3785 26.551L13.0874 25.2599L12.7443 24.9168L13.0874 24.5738L14.2866 23.3745C14.0743 23.0457 13.8917 22.699 13.7421 22.3381C13.5937 21.9801 13.4761 21.607 13.3925 21.2222H11.6991H11.2139V20.737V18.9111V18.4259H11.6991H13.3924C13.476 18.0412 13.5937 17.6682 13.742 17.3103C13.8926 16.9469 14.075 16.5999 14.2857 16.2727L13.0874 15.0744L12.7443 14.7313L13.0874 14.3883L14.3785 13.0971L14.7216 12.7541L15.0646 13.0971L16.2632 14.2958C16.5911 14.0845 16.938 13.902 17.3003 13.7518C17.6583 13.6035 18.0314 13.4858 18.4162 13.4022V11.7088V11.2236H18.9014H20.7273H21.2125V11.7088V13.4022C21.5972 13.4858 21.9701 13.6034 22.3281 13.7517C22.6914 13.9023 23.0385 14.0847 23.3657 14.2954L24.564 13.0971L24.9071 12.7541L25.2501 13.0971L26.5413 14.3883L26.8843 14.7313L26.5413 15.0744L25.342 16.2736C25.5542 16.6025 25.7369 16.9491 25.8865 17.31C26.0349 17.6681 26.1525 18.0411 26.2361 18.4259H27.9295H28.4147V18.9111ZM27.4443 20.2518V19.3963H25.8326H25.4152L25.353 18.9831C25.2845 18.5275 25.1618 18.0913 24.9919 17.6815C24.8154 17.2554 24.5911 16.8593 24.3264 16.5007L24.0786 16.1648L24.3719 15.8715L25.5121 14.7313L24.9071 14.1263L23.7669 15.2664L23.4725 15.5609L23.1377 15.3138C22.7751 15.0463 22.3788 14.8213 21.9566 14.6463C21.5469 14.4765 21.1108 14.3538 20.6553 14.2853L20.2421 14.2232V13.8058V12.194H19.3866V13.8058V14.2232L18.9734 14.2853C18.5178 14.3539 18.0816 14.4766 17.6717 14.6464C17.2485 14.8218 16.8531 15.0461 16.4928 15.3119L16.1559 15.5606L15.8617 15.2664L14.7215 14.1263L14.1165 14.7313L15.2567 15.8715L15.5511 16.1659L15.3041 16.5007C15.0366 16.8633 14.8116 17.2595 14.6366 17.6818C14.4667 18.0915 14.3441 18.5276 14.2756 18.9831L14.2134 19.3963H13.7961H12.1843V20.2518H13.7961H14.2134L14.2756 20.665C14.3441 21.1206 14.4668 21.5568 14.6367 21.9666C14.8132 22.3927 15.0376 22.7888 15.3022 23.1474L15.5501 23.4833L15.2567 23.7766L14.1165 24.9168L14.7215 25.5218L15.8617 24.3817L16.1561 24.0873L16.4909 24.3343C16.8536 24.6018 17.2498 24.8268 17.672 25.0018C18.0817 25.1716 18.5178 25.2943 18.9734 25.3628L19.3866 25.4249V25.8423V27.4541H20.2421V25.8423V25.4249L20.6553 25.3628C21.1108 25.2942 21.547 25.1715 21.9569 25.0017C22.3801 24.8263 22.7755 24.602 23.1358 24.3362L23.4728 24.0875L23.7669 24.3817L24.9071 25.5218L25.5121 24.9168L24.3719 23.7766L24.0775 23.4823L24.3245 23.1474C24.592 22.7848 24.8171 22.3886 24.9921 21.9663C25.1619 21.5566 25.2845 21.1205 25.353 20.665L25.4152 20.2518H25.8326L27.4443 20.2518Z" fill="white" stroke="white" stroke-width="0.637683"/>
<path d="M19.8138 15.687C20.9562 15.687 21.9905 16.1501 22.7391 16.8988C23.4878 17.6474 23.9509 18.6817 23.9509 19.8241C23.9509 20.9664 23.4878 22.0007 22.7391 22.7494C21.9904 23.498 20.9562 23.9611 19.8138 23.9611C18.6715 23.9611 17.6372 23.498 16.8885 22.7494C16.1398 22.0008 15.6768 20.9665 15.6768 19.8241C15.6768 18.6817 16.1398 17.6474 16.8885 16.8988C17.6372 16.1501 18.6715 15.687 19.8138 15.687ZM22.053 17.5849C21.48 17.0119 20.6883 16.6574 19.8138 16.6574C18.9393 16.6574 18.1476 17.0119 17.5746 17.5849C17.0016 18.1579 16.6472 18.9496 16.6472 19.8241C16.6472 20.6986 17.0016 21.4903 17.5746 22.0633C18.1476 22.6363 18.9393 22.9907 19.8138 22.9907C20.6883 22.9907 21.48 22.6363 22.0531 22.0633C22.626 21.4903 22.9805 20.6986 22.9805 19.8241C22.9805 18.9496 22.626 18.1579 22.053 17.5849Z" fill="white" stroke="white" stroke-width="0.637683"/>
<path d="M36.4687 9.71415L29.7811 13.5753L29.2959 12.7376L35.9836 8.87646L36.4687 9.71415Z" fill="white" stroke="white" stroke-width="0.637683"/>
<path d="M11.8466 28.3981L7.32579 33.3702L6.60938 32.7182L11.1303 27.7461L11.8466 28.3981Z" fill="white" stroke="white" stroke-width="0.637683"/>
<path d="M20.7003 31.8862L21.6706 38.6789L20.7116 38.8153L19.7412 32.0227L20.7003 31.8862Z" fill="white" stroke="white" stroke-width="0.637683"/>
<path d="M8.67638 6.83545L12.4764 11.0297L11.76 11.6779L7.95996 7.48364L8.67638 6.83545Z" fill="white" stroke="white" stroke-width="0.637683"/>
</svg>
