<svg width="45" height="46" viewBox="0 0 45 46" fill="none" xmlns="http://www.w3.org/2000/svg">
<path d="M37.5359 28.4243V14.475L25.9115 7.93652M19.4018 7.93652L7.77734 14.475V28.4243M10.5672 32.784L22.6566 39.5838L30.0962 35.399L34.746 32.783M22.6566 16.3349L25.4465 17.9624L28.2363 19.5898V26.0995L25.4465 27.7269L22.6566 29.3543L19.8668 27.7269L17.0769 26.0995V19.5898L19.8668 17.9624L22.6566 16.3349ZM22.6566 16.3349V9.82526M28.2363 25.6345L34.746 29.3543M17.0769 25.6345L10.5672 29.3543" stroke="white" stroke-width="3.6439" stroke-linecap="round" stroke-linejoin="round"/>
<path d="M22.6566 9.82533C24.1974 9.82533 25.4464 8.57627 25.4464 7.03547C25.4464 5.49467 24.1974 4.24561 22.6566 4.24561C21.1158 4.24561 19.8667 5.49467 19.8667 7.03547C19.8667 8.57627 21.1158 9.82533 22.6566 9.82533Z" stroke="white" stroke-width="3.6439" stroke-linecap="round" stroke-linejoin="round"/>
<path d="M7.77717 34.0036C9.31797 34.0036 10.567 32.7545 10.567 31.2137C10.567 29.6729 9.31797 28.4238 7.77717 28.4238C6.23637 28.4238 4.9873 29.6729 4.9873 31.2137C4.9873 32.7545 6.23637 34.0036 7.77717 34.0036Z" stroke="white" stroke-width="3.6439" stroke-linecap="round" stroke-linejoin="round"/>
<path d="M37.536 34.0036C39.0768 34.0036 40.3258 32.7545 40.3258 31.2137C40.3258 29.6729 39.0768 28.4238 37.536 28.4238C35.9952 28.4238 34.7461 29.6729 34.7461 31.2137C34.7461 32.7545 35.9952 34.0036 37.536 34.0036Z" stroke="white" stroke-width="3.6439" stroke-linecap="round" stroke-linejoin="round"/>
</svg>
