<svg width="40" height="40" viewBox="0 0 40 40" fill="none" xmlns="http://www.w3.org/2000/svg">
<path d="M4.98412 9.19724C7.28589 9.19724 9.15183 7.33129 9.15183 5.02953C9.15183 2.72777 7.28589 0.861816 4.98412 0.861816C2.68236 0.861816 0.816406 2.72777 0.816406 5.02953C0.816406 7.33129 2.68236 9.19724 4.98412 9.19724Z" fill="white"/>
<path d="M35.5481 9.19724C37.8499 9.19724 39.7158 7.33129 39.7158 5.02953C39.7158 2.72777 37.8499 0.861816 35.5481 0.861816C33.2463 0.861816 31.3804 2.72777 31.3804 5.02953C31.3804 7.33129 33.2463 9.19724 35.5481 9.19724Z" fill="white"/>
<path d="M4.98412 39.7607C7.28589 39.7607 9.15183 37.8948 9.15183 35.593C9.15183 33.2912 7.28589 31.4253 4.98412 31.4253C2.68236 31.4253 0.816406 33.2912 0.816406 35.593C0.816406 37.8948 2.68236 39.7607 4.98412 39.7607Z" fill="white"/>
<path d="M35.5481 39.7607C37.8499 39.7607 39.7158 37.8948 39.7158 35.593C39.7158 33.2912 37.8499 31.4253 35.5481 31.4253C33.2463 31.4253 31.3804 33.2912 31.3804 35.593C31.3804 37.8948 33.2463 39.7607 35.5481 39.7607Z" fill="white"/>
<path d="M30.1882 6.4191C30.0721 5.97241 29.9909 5.51233 29.9909 5.02986C29.9909 4.54739 30.0721 4.08731 30.1882 3.64062H10.3442C10.4603 4.08731 10.5416 4.54739 10.5416 5.02986C10.5416 5.51233 10.4603 5.97241 10.3442 6.4191H30.1882Z" fill="white"/>
<path d="M3.59521 10.3892V30.2329C4.0419 30.1169 4.5019 30.0357 4.98445 30.0357C5.46701 30.0357 5.927 30.1169 6.37369 30.2329V10.4027C5.9298 10.5193 5.46573 10.5864 4.98445 10.5864C4.5019 10.5864 4.0419 10.5052 3.59521 10.3892Z" fill="white"/>
<path d="M10.3442 34.2031C10.4603 34.6498 10.5416 35.1099 10.5416 35.5924C10.5416 36.0748 10.4603 36.5349 10.3442 36.9816H30.1882C30.0721 36.5349 29.9909 36.0748 29.9909 35.5924C29.9909 35.1099 30.0721 34.6498 30.1882 34.2031H10.3442Z" fill="white"/>
<path d="M34.1592 10.4027V30.2329C34.6059 30.1169 35.0659 30.0357 35.5484 30.0357C36.031 30.0357 36.491 30.1169 36.9377 30.2329V10.3892C36.491 10.5052 36.031 10.5864 35.5484 10.5864C35.0671 10.5864 34.6031 10.5193 34.1592 10.4027Z" fill="white"/>
<path d="M32.7685 30.8083V9.82695C31.9403 9.33837 31.2486 8.64053 30.7629 7.80762H9.7678C9.28211 8.64053 8.59037 9.33837 7.76221 9.82695V30.8083C8.59444 31.2937 9.28245 31.9817 9.7678 32.8139H30.7629C31.2482 31.9817 31.9363 31.2937 32.7685 30.8083ZM16.0976 30.0354H11.9299V17.5323C11.9299 16.7651 12.552 16.143 13.3192 16.143H16.0976V30.0354ZM23.0438 30.0354H17.4869V11.9753C17.4869 11.2081 18.1089 10.5861 18.8761 10.5861H21.6546C22.4225 10.5861 23.0438 11.2081 23.0438 11.9753V30.0354ZM28.6008 30.0354H24.4331V16.143H27.2115C27.9794 16.143 28.6008 16.7651 28.6008 17.5323V30.0354Z" fill="white"/>
</svg>
