<svg width="59" height="59" viewBox="0 0 59 59" fill="none" xmlns="http://www.w3.org/2000/svg">
<path d="M55.5581 5.16337C55.3123 4.42587 54.5748 3.68837 53.8373 3.44254C43.5123 0.738369 32.9415 3.9342 25.8123 12.2925L23.1081 15.4884L16.4706 14.0134C13.2748 12.7842 9.83314 14.2592 8.35814 17.2092L2.9498 26.7967C2.45814 27.5342 2.45814 28.2717 2.9498 29.0092C3.19564 29.7467 3.93314 30.2384 4.67064 30.4842L12.2915 32.205C11.554 34.1717 11.3081 36.1384 10.8165 38.105C10.8165 38.8425 11.0623 39.58 11.554 40.0717L19.1748 47.6925C19.6665 48.1842 20.1581 48.43 20.8956 48.43H21.1415C23.354 48.1842 25.3206 47.9384 27.2873 47.2009L28.7623 54.5759C29.0081 55.3134 29.4998 56.0509 30.2373 56.2967C30.4831 56.5425 30.9748 56.5425 31.2206 56.5425C31.7123 56.5425 31.9581 56.5425 32.4498 56.2967L42.0373 50.8884C44.7415 49.4134 46.2165 45.9717 45.479 42.7759L43.7581 35.8925L46.7081 33.1884C54.8206 26.305 58.2623 15.2425 55.5581 5.16337ZM17.9456 21.6342C16.4706 23.6009 14.9956 25.5675 14.0123 27.5342L8.8498 26.305L12.5373 19.6675C13.029 18.6842 14.0123 18.4384 15.2415 18.6842L19.4206 19.6675L17.9456 21.6342ZM39.3331 46.4634L32.6956 50.1509L31.7123 45.2342C33.9248 44.2509 35.8915 42.7759 37.6123 41.3009L39.3331 39.58L40.3165 43.7592C40.8081 44.9884 40.0706 46.2175 39.3331 46.4634ZM41.054 21.6342C39.0873 21.6342 37.3665 19.9134 37.3665 17.9467C37.3665 15.98 39.0873 14.2592 41.054 14.2592C43.0206 14.2592 44.7415 15.98 44.7415 17.9467C44.7415 19.9134 43.2665 21.6342 41.054 21.6342Z" fill="white"/>
</svg>
