<svg width="41" height="40" viewBox="0 0 41 40" fill="none" xmlns="http://www.w3.org/2000/svg">
<path fill-rule="evenodd" clip-rule="evenodd" d="M11.2045 6.9437C11.2045 6.59354 11.3436 6.25773 11.5912 6.01013C11.8388 5.76253 12.1746 5.62343 12.5248 5.62343H28.3679C28.7181 5.62343 29.0539 5.76253 29.3015 6.01013C29.5491 6.25773 29.6882 6.59354 29.6882 6.9437V33.3489C29.6882 33.6991 29.5491 34.0349 29.3015 34.2825C29.0539 34.5301 28.7181 34.6692 28.3679 34.6692H12.5248C12.1746 34.6692 11.8388 34.5301 11.5912 34.2825C11.3436 34.0349 11.2045 33.6991 11.2045 33.3489V6.9437ZM12.5248 2.98291C11.4743 2.98291 10.4668 3.40021 9.72405 4.143C8.98126 4.88579 8.56396 5.89323 8.56396 6.9437V33.3489C8.56396 34.3994 8.98126 35.4068 9.72405 36.1496C10.4668 36.8924 11.4743 37.3097 12.5248 37.3097H28.3679C29.4184 37.3097 30.4258 36.8924 31.1686 36.1496C31.9114 35.4068 32.3287 34.3994 32.3287 33.3489V6.9437C32.3287 5.89323 31.9114 4.88579 31.1686 4.143C30.4258 3.40021 29.4184 2.98291 28.3679 2.98291H12.5248ZM16.4855 31.1045C16.2404 31.1045 16.0054 31.2019 15.832 31.3752C15.6587 31.5485 15.5614 31.7836 15.5614 32.0287C15.5614 32.2738 15.6587 32.5089 15.832 32.6822C16.0054 32.8555 16.2404 32.9529 16.4855 32.9529H24.4071C24.6522 32.9529 24.8873 32.8555 25.0606 32.6822C25.2339 32.5089 25.3313 32.2738 25.3313 32.0287C25.3313 31.7836 25.2339 31.5485 25.0606 31.3752C24.8873 31.2019 24.6522 31.1045 24.4071 31.1045H16.4855Z" fill="white" stroke="white" stroke-width="0.404162"/>
</svg>
