<svg width="178" height="57" viewBox="0 0 178 57" fill="none" xmlns="http://www.w3.org/2000/svg">
<path d="M48.4617 17.3389H59.5623C59.8764 17.3389 60.023 17.4855 60.023 17.7997V19.7894C60.023 20.1036 59.8764 20.2502 59.5623 20.2502H49.0691C48.2732 20.2502 47.959 20.69 47.959 21.4231V22.1352C47.959 22.9101 48.3151 23.3081 49.0481 23.3081H56.9023C59.3109 23.3081 60.5676 24.6066 60.5676 26.9105V28.5861C60.5676 30.6177 59.3947 32 56.8604 32H45.2572C44.943 32 44.7755 31.8534 44.7755 31.5392V29.5495C44.7755 29.2353 44.943 29.0887 45.2572 29.0887H56.253C57.0489 29.0887 57.3631 28.6489 57.3631 27.9158V27.0571C57.3631 26.2822 57.007 25.8842 56.274 25.8842H48.4198C46.0112 25.8842 44.7545 24.5857 44.7545 22.2818V20.7528C44.7545 18.7212 45.9274 17.3389 48.4617 17.3389ZM63.4458 17.3389H65.7078C66.022 17.3389 66.1686 17.4855 66.1686 17.7997V23.3709H69.1218C70.4413 23.3709 70.8392 23.2243 71.4466 22.4284L75.049 17.6112C75.1957 17.4227 75.2794 17.3389 75.6564 17.3389H78.2535C78.6096 17.3389 78.6724 17.6531 78.5258 17.8416L74.4626 23.0986C73.9809 23.7269 73.6039 24.1668 73.2059 24.5019C73.7714 24.8579 74.2741 25.3397 74.7977 26.0099L79.0913 31.4554C79.196 31.6021 79.2379 32 78.819 32H76.1382C75.7821 32 75.6983 31.9162 75.5517 31.7277L71.6979 26.7429C71.1324 26.0099 70.6507 25.8004 69.3521 25.8004H66.1686V31.5392C66.1686 31.8534 66.022 32 65.7078 32H63.4458C63.1316 32 62.9641 31.8534 62.9641 31.5392V17.7997C62.9641 17.4855 63.1316 17.3389 63.4458 17.3389ZM79.9608 17.3389H82.7674C83.0187 17.3389 83.1444 17.4017 83.2701 17.5902L88.8622 25.1512L94.4963 17.5902C94.622 17.4017 94.7476 17.3389 94.999 17.3389H97.7427C97.9731 17.3389 98.0778 17.5693 97.9312 17.7578L90.4121 27.5179V31.5392C90.4121 31.8534 90.2655 32 89.9513 32H87.6893C87.3752 32 87.2076 31.8534 87.2076 31.5392V27.5179L79.7723 17.7578C79.6257 17.5693 79.7095 17.3389 79.9608 17.3389ZM98.8629 17.3389H101.669C101.816 17.3389 101.9 17.4017 101.963 17.6112L105.356 28.8793C105.377 29.0049 105.439 29.0259 105.523 29.0259H105.628C105.712 29.0259 105.754 29.0049 105.795 28.8793L109.188 18.5537C109.503 17.6112 109.984 17.3389 110.738 17.3389H112.812C113.733 17.3389 114.173 17.674 114.466 18.5537L117.943 28.8793C117.985 29.0049 118.027 29.0259 118.111 29.0259H118.236C118.32 29.0259 118.362 29.0049 118.404 28.8793L121.713 17.6112C121.776 17.3808 121.902 17.3389 122.048 17.3389H124.876C125.106 17.3389 125.127 17.5693 125.043 17.8206L121.022 30.4082C120.624 31.6649 120.205 32 119.409 32H116.959C116.142 32 115.765 31.6439 115.346 30.4082L112.058 20.4596C112.037 20.3549 111.995 20.313 111.89 20.313H111.807C111.723 20.313 111.66 20.3549 111.639 20.4596L108.309 30.4082C107.89 31.6439 107.513 32 106.696 32H104.308C103.366 32 102.947 31.7068 102.549 30.4082L98.6953 17.8206C98.6115 17.5483 98.6325 17.3389 98.8629 17.3389ZM132.654 17.3389H133.89C134.958 17.3389 135.607 17.674 136.299 18.9307L143.231 31.5183C143.378 31.7906 143.315 32 142.98 32H140.32C140.048 32 139.943 31.9372 139.838 31.7277L138.351 29.0259H128.507L127.062 31.7277C126.957 31.9372 126.832 32 126.58 32H123.858C123.502 32 123.439 31.7906 123.585 31.5183L130.455 18.9307C131.146 17.674 131.775 17.3389 132.654 17.3389ZM133.115 20.4596L129.827 26.5963H137.032L133.702 20.4596C133.639 20.3549 133.576 20.313 133.471 20.313H133.345C133.241 20.313 133.178 20.3549 133.115 20.4596ZM140.282 17.3389H142.921C143.193 17.3389 143.298 17.4227 143.403 17.6112L149.539 28.8793C149.602 29.0049 149.665 29.0259 149.791 29.0259H149.895C150 29.0259 150.063 29.0049 150.126 28.8793L156.179 17.6112C156.283 17.4017 156.409 17.3389 156.66 17.3389H159.404C159.739 17.3389 159.802 17.5483 159.655 17.8206L152.786 30.4082C152.094 31.6858 151.466 32 150.586 32H149.372C148.283 32 147.675 31.6858 146.963 30.4082L140.01 17.8206C139.863 17.5483 139.926 17.3389 140.282 17.3389ZM166.286 17.3389H175.501C175.816 17.3389 175.983 17.4855 175.983 17.7997V19.7894C175.983 20.1036 175.816 20.2502 175.501 20.2502H166.349C164.17 20.2502 163.563 20.8994 163.563 23.0986V23.3081H175.397C175.711 23.3081 175.857 23.4547 175.857 23.7688V25.4234C175.857 25.7376 175.711 25.8842 175.397 25.8842H163.563V26.2403C163.563 28.4394 164.17 29.0887 166.349 29.0887H175.501C175.816 29.0887 175.983 29.2353 175.983 29.5495V31.5392C175.983 31.8534 175.816 32 175.501 32H166.286C162.055 32 160.421 30.492 160.421 26.4707V22.8682C160.421 18.8469 162.055 17.3389 166.286 17.3389Z" fill="white"/>
<g filter="url(#filter0_d_155_2431)">
<path d="M18.0067 16.965L3.37646 8.51416V25.4158L18.0067 16.965Z" fill="url(#paint0_linear_155_2431)"/>
<path d="M32.5194 25.3568L17.9331 16.9355V33.7791L32.5194 25.3568Z" fill="url(#paint1_linear_155_2431)"/>
<path d="M17.9628 16.9951L3.37646 25.4163L17.9628 33.8387V16.9951Z" fill="url(#paint2_linear_155_2431)"/>
<path d="M32.5186 25.3569L17.8599 33.7793L32.5548 42.263L32.5186 25.3569Z" fill="url(#paint3_linear_155_2431)"/>
<path d="M32.5487 42.2576L17.9624 33.7793V50.7369L32.5487 42.2576Z" fill="#59525B"/>
<path d="M3.3457 8.51445L17.9924 17.0278V0L3.3457 8.51445Z" fill="#59525B"/>
<path d="M17.9332 15.5202L17.8104 0.173828L4.70361 7.74174L17.9332 15.5202Z" fill="url(#paint4_linear_155_2431)"/>
<path d="M31.2413 43.0265L17.9097 35.3818L17.9546 50.7502L31.2413 43.0265Z" fill="url(#paint5_linear_155_2431)"/>
</g>
<defs>
<filter id="filter0_d_155_2431" x="0.698969" y="0" width="34.5025" height="56.0435" filterUnits="userSpaceOnUse" color-interpolation-filters="sRGB">
<feFlood flood-opacity="0" result="BackgroundImageFix"/>
<feColorMatrix in="SourceAlpha" type="matrix" values="0 0 0 0 0 0 0 0 0 0 0 0 0 0 0 0 0 0 127 0" result="hardAlpha"/>
<feOffset dy="2.64673"/>
<feGaussianBlur stdDeviation="1.32337"/>
<feComposite in2="hardAlpha" operator="out"/>
<feColorMatrix type="matrix" values="0 0 0 0 0 0 0 0 0 0 0 0 0 0 0 0 0 0 0.25 0"/>
<feBlend mode="normal" in2="BackgroundImageFix" result="effect1_dropShadow_155_2431"/>
<feBlend mode="normal" in="SourceGraphic" in2="effect1_dropShadow_155_2431" result="shape"/>
</filter>
<linearGradient id="paint0_linear_155_2431" x1="3.37646" y1="16.965" x2="18.0067" y2="16.965" gradientUnits="userSpaceOnUse">
<stop stop-color="#DD9F14"/>
<stop offset="0.06" stop-color="#E1A41C"/>
<stop offset="0.28" stop-color="#EDB535"/>
<stop offset="0.5" stop-color="#F6C147"/>
<stop offset="0.73" stop-color="#FCC852"/>
<stop offset="1" stop-color="#FECB56"/>
</linearGradient>
<linearGradient id="paint1_linear_155_2431" x1="17.9331" y1="25.3568" x2="32.5194" y2="25.3568" gradientUnits="userSpaceOnUse">
<stop stop-color="#F34F29"/>
<stop offset="0.17" stop-color="#F35F39"/>
<stop offset="0.43" stop-color="#F3714A"/>
<stop offset="0.69" stop-color="#F37C54"/>
<stop offset="1" stop-color="#F48058"/>
</linearGradient>
<linearGradient id="paint2_linear_155_2431" x1="3.37646" y1="25.4163" x2="17.9628" y2="25.4163" gradientUnits="userSpaceOnUse">
<stop stop-color="#FD9934"/>
<stop offset="0.94" stop-color="#FCA932"/>
<stop offset="1" stop-color="#FCAB32"/>
</linearGradient>
<linearGradient id="paint3_linear_155_2431" x1="17.6101" y1="33.7362" x2="32.2337" y2="33.7669" gradientUnits="userSpaceOnUse">
<stop stop-color="#BC0D66"/>
<stop offset="0.33" stop-color="#BF0E68"/>
<stop offset="0.6" stop-color="#C91470"/>
<stop offset="0.84" stop-color="#DA1D7E"/>
<stop offset="1" stop-color="#EA268C"/>
</linearGradient>
<linearGradient id="paint4_linear_155_2431" x1="5.32889" y1="4.99292" x2="19.5901" y2="8.24345" gradientUnits="userSpaceOnUse">
<stop stop-color="#AAAAAA"/>
<stop offset="0.2" stop-color="#999A9C"/>
<stop offset="0.58" stop-color="#6D7279"/>
<stop offset="1" stop-color="#38424E"/>
</linearGradient>
<linearGradient id="paint5_linear_155_2431" x1="16.4812" y1="42.7828" x2="30.7573" y2="45.5423" gradientUnits="userSpaceOnUse">
<stop stop-color="#AAAAAA"/>
<stop offset="0.2" stop-color="#999A9C"/>
<stop offset="0.58" stop-color="#6D7279"/>
<stop offset="1" stop-color="#38424E"/>
</linearGradient>
</defs>
</svg>
