<svg width="71" height="71" viewBox="0 0 71 71" fill="none" xmlns="http://www.w3.org/2000/svg">
<path fill-rule="evenodd" clip-rule="evenodd" d="M24.4062 19.9688C24.4062 17.0265 25.5751 14.2048 27.6555 12.1243C29.736 10.0438 32.5578 8.875 35.5 8.875C38.4422 8.875 41.264 10.0438 43.3445 12.1243C45.4249 14.2048 46.5938 17.0265 46.5938 19.9688C46.5938 22.911 45.4249 25.7327 43.3445 27.8132C41.264 29.8937 38.4422 31.0625 35.5 31.0625C32.5578 31.0625 29.736 29.8937 27.6555 27.8132C25.5751 25.7327 24.4062 22.911 24.4062 19.9688ZM46.5938 28.8438C46.5938 26.49 47.5288 24.2326 49.1932 22.5682C50.8576 20.9038 53.115 19.9688 55.4688 19.9688C57.8225 19.9688 60.0799 20.9038 61.7443 22.5682C63.4087 24.2326 64.3438 26.49 64.3438 28.8438C64.3438 31.1975 63.4087 33.4549 61.7443 35.1193C60.0799 36.7837 57.8225 37.7188 55.4688 37.7188C53.115 37.7188 50.8576 36.7837 49.1932 35.1193C47.5288 33.4549 46.5938 31.1975 46.5938 28.8438ZM6.65625 28.8438C6.65625 26.49 7.59129 24.2326 9.25568 22.5682C10.9201 20.9038 13.1775 19.9688 15.5312 19.9688C17.885 19.9688 20.1424 20.9038 21.8068 22.5682C23.4712 24.2326 24.4062 26.49 24.4062 28.8438C24.4062 31.1975 23.4712 33.4549 21.8068 35.1193C20.1424 36.7837 17.885 37.7188 15.5312 37.7188C13.1775 37.7188 10.9201 36.7837 9.25568 35.1193C7.59129 33.4549 6.65625 31.1975 6.65625 28.8438ZM18.6671 44.7211C20.4715 41.893 22.9599 39.5655 25.902 37.9538C28.8442 36.342 32.1453 35.4981 35.5 35.5C38.3099 35.4974 41.0886 36.0883 43.6543 37.2341C46.22 38.3798 48.5148 40.0545 50.3885 42.1485C52.2621 44.2425 53.6724 46.7086 54.527 49.3854C55.3816 52.0622 55.6611 54.8893 55.3475 57.6816C55.3091 58.0285 55.1895 58.3614 54.9982 58.6534C54.807 58.9454 54.5496 59.1881 54.247 59.3619C48.542 62.6354 42.0774 64.3533 35.5 64.3438C28.9225 64.3541 22.4577 62.6362 16.753 59.3619C16.4504 59.1881 16.193 58.9454 16.0018 58.6534C15.8105 58.3614 15.6909 58.0285 15.6525 57.6816C15.1557 53.1453 16.2189 48.5752 18.6671 44.7241V44.7211Z" fill="white"/>
<path d="M15.0345 42.168C12.1168 46.6717 10.7575 52.0083 11.165 57.359C9.38853 57.0897 7.64134 56.6539 5.94649 56.0573L5.60628 55.939C5.30274 55.8313 5.03695 55.6378 4.8411 55.3821C4.64525 55.1264 4.52775 54.8194 4.50282 54.4983L4.47324 54.1403C4.35374 52.6552 4.53464 51.1611 5.00516 49.7474C5.47568 48.3336 6.22616 47.0291 7.21184 45.9117C8.19751 44.7944 9.39817 43.887 10.7422 43.2438C12.0862 42.6006 13.546 42.2347 15.0345 42.168ZM59.8355 57.359C60.243 52.0083 58.8836 46.6717 55.966 42.168C57.4545 42.2347 58.9143 42.6006 60.2583 43.2438C61.6023 43.887 62.803 44.7944 63.7886 45.9117C64.7743 47.0291 65.5248 48.3336 65.9953 49.7474C66.4658 51.1611 66.6467 52.6552 66.5272 54.1403L66.4977 54.4983C66.4722 54.8189 66.3544 55.1253 66.1586 55.3804C65.9628 55.6355 65.6973 55.8285 65.3942 55.9361L65.054 56.0544C63.3766 56.6461 61.6342 57.0868 59.8355 57.359Z" fill="white"/>
</svg>
