<svg width="56" height="56" viewBox="0 0 56 56" fill="none" xmlns="http://www.w3.org/2000/svg">
<g opacity="0.9" clip-path="url(#clip0_198_5614)">
<path d="M38.3685 29.157H17.4907V8.2793H38.3685V29.157ZM24.45 22.1978H31.4092V15.2385H24.45V22.1978Z" fill="white"/>
<path d="M55.7669 15.2383H34.8892V22.1975H55.7669V15.2383Z" fill="white"/>
<path d="M20.971 15.2383H0.0932617V22.1975H20.971V15.2383Z" fill="white"/>
<path d="M14.0104 39.5964H7.05119V32.6372C6.99731 30.7947 7.32048 28.9607 8.00088 27.2477C8.68128 25.5347 9.70455 23.9787 11.0079 22.6754C12.3112 21.372 13.8672 20.3488 15.5802 19.6684C17.2933 18.988 19.1273 18.6648 20.9697 18.7187L20.9975 25.6779C20.066 25.6146 19.1317 25.7509 18.2571 26.0779C17.3826 26.4048 16.5879 26.9148 15.9264 27.5737C15.2649 28.2325 14.7517 29.0251 14.4213 29.8984C14.0909 30.7716 13.9508 31.7054 14.0104 32.6372V39.5964Z" fill="white"/>
<path d="M48.8077 39.5964H41.8484V32.6372C41.9088 31.7076 41.7701 30.7759 41.4417 29.9042C41.1134 29.0325 40.6028 28.2409 39.9441 27.5822C39.2854 26.9235 38.4938 26.413 37.6221 26.0846C36.7504 25.7562 35.8187 25.6176 34.8892 25.6779V18.7187C36.7316 18.6648 38.5656 18.988 40.2786 19.6684C41.9917 20.3488 43.5476 21.372 44.851 22.6754C46.1543 23.9787 47.1776 25.5347 47.858 27.2477C48.5384 28.9607 48.8615 30.7947 48.8077 32.6372V39.5964Z" fill="white"/>
<circle cx="10" cy="47" r="4" fill="white"/>
<circle cx="46" cy="47" r="4" fill="white"/>
</g>
<defs>
<clipPath id="clip0_198_5614">
<rect width="55.5695" height="55.5695" fill="white" transform="translate(0.14502 0.234863)"/>
</clipPath>
</defs>
</svg>
