<svg width="46" height="46" viewBox="0 0 46 46" fill="none" xmlns="http://www.w3.org/2000/svg">
<g clip-path="url(#clip0_198_5569)">
<path d="M4.2042 37.6311C3.18125 37.6311 2.30523 37.2666 1.57614 36.5375C0.84706 35.8084 0.483138 34.933 0.484378 33.9113H7.92401C6.90106 33.9113 6.02505 33.5468 5.29596 32.8177C4.56688 32.0886 4.20296 31.2132 4.2042 30.1915V9.73252C4.2042 8.70957 4.56874 7.83355 5.29782 7.10446C6.02691 6.37538 6.9023 6.01146 7.92401 6.0127H37.6826C38.7055 6.0127 39.5815 6.37724 40.3106 7.10632C41.0397 7.83541 41.4036 8.71081 41.4024 9.73252V30.1915C41.4024 31.2145 41.0378 32.0905 40.3087 32.8196C39.5797 33.5486 38.7043 33.9126 37.6826 33.9113H45.1222C45.1222 34.9343 44.7576 35.8103 44.0286 36.5394C43.2995 37.2685 42.4241 37.6324 41.4024 37.6311H4.2042ZM22.8033 35.7712C23.3303 35.7712 23.7723 35.5927 24.1294 35.2356C24.4865 34.8785 24.6644 34.4371 24.6632 33.9113C24.6632 33.3844 24.4846 32.9423 24.1275 32.5852C23.7704 32.2281 23.329 32.0502 22.8033 32.0514C22.2763 32.0514 21.8343 32.23 21.4772 32.5871C21.1201 32.9442 20.9421 33.3856 20.9434 33.9113C20.9434 34.4383 21.1219 34.8803 21.479 35.2374C21.8361 35.5945 22.2775 35.7725 22.8033 35.7712ZM7.92401 30.1915H37.6826V9.73252H7.92401V30.1915Z" fill="white"/>
</g>
<defs>
<clipPath id="clip0_198_5569">
<rect width="44.6378" height="44.6378" fill="white" transform="translate(0.484375 0.433594)"/>
</clipPath>
</defs>
</svg>
